<svg xmlns="http://www.w3.org/2000/svg" viewBox="0 0 64 64"><defs><linearGradient id="or" x1="0" y1="0" x2="0" y2="1"><stop offset="0" stop-color="#f6e2a8"/><stop offset=".55" stop-color="#d9b56a"/><stop offset="1" stop-color="#a87a3e"/></linearGradient></defs>
  <path d="M43 27 H49 A7 7 0 0 1 56 34 V42 A7 7 0 0 1 49 49 H43" fill="none" stroke="#2a1d0a" stroke-width="7.5"/>
  <path d="M43 27 H49 A7 7 0 0 1 56 34 V42 A7 7 0 0 1 49 49 H43" fill="none" stroke="url(#or)" stroke-width="4.5"/>
  <rect x="12" y="21" width="32" height="37" rx="3.5" fill="url(#or)" stroke="#2a1d0a" stroke-width="1.4"/>
  <path d="M20 27 V52 M28 27 V52 M36 27 V52" stroke="#8a5f2c" stroke-width="2.2" stroke-linecap="round"/>
  <path d="M11 22 C8 16 13 11 18 13 C20 7 29 6 31 12 C34 8 42 9 42 15 C47 15 48 22 43 24 L13 24 Z"
        fill="#fbf1d6" stroke="#2a1d0a" stroke-width="1.4" stroke-linejoin="round"/>
  <path d="M41 24 C42 28 40 30 39 32" stroke="#fbf1d6" stroke-width="3" stroke-linecap="round" fill="none"/></svg>
